<svg xmlns="http://www.w3.org/2000/svg" xmlns:xlink="http://www.w3.org/1999/xlink" viewBox="0 0 355.27 445.45"><defs><style>.cls-1{fill:#0b72ba;}.cls-2{fill:url(#linear-gradient);}.cls-3{fill:#11b3cb;}.cls-4{fill:url(#radial-gradient);}.cls-5{fill:url(#radial-gradient-2);}.cls-6{fill:url(#radial-gradient-3);}.cls-7{fill:url(#radial-gradient-4);}.cls-8{fill:url(#linear-gradient-2);}.cls-9{font-size:22px;fill:#fff;font-family:Poppins-Medium, Poppins;font-weight:500;}</style><linearGradient id="linear-gradient" x1="73.09" y1="236.93" x2="283.59" y2="236.93" gradientUnits="userSpaceOnUse"><stop offset="0" stop-color="#2a316e"/><stop offset="0.01" stop-color="#2a3471"/><stop offset="0.15" stop-color="#2c66a0"/><stop offset="0.28" stop-color="#2d8bc3"/><stop offset="0.39" stop-color="#2ea2d8"/><stop offset="0.45" stop-color="#2eaae0"/><stop offset="0.99" stop-color="#2b2b6a"/></linearGradient><radialGradient id="radial-gradient" cx="259.64" cy="152.94" r="8.88" gradientUnits="userSpaceOnUse"><stop offset="0" stop-color="#3d3666"/><stop offset="0.28" stop-color="#3c3968"/><stop offset="0.45" stop-color="#3a416e"/><stop offset="0.59" stop-color="#374f79"/><stop offset="0.71" stop-color="#326487"/><stop offset="0.82" stop-color="#2b7e9b"/><stop offset="0.93" stop-color="#239eb2"/><stop offset="1" stop-color="#1cbac7"/></radialGradient><radialGradient id="radial-gradient-2" cx="271.54" cy="144.78" r="7.28" xlink:href="#radial-gradient"/><radialGradient id="radial-gradient-3" cx="247.19" cy="144.05" r="7.32" xlink:href="#radial-gradient"/><radialGradient id="radial-gradient-4" cx="251.9" cy="144.09" r="4.53" xlink:href="#radial-gradient"/><linearGradient id="linear-gradient-2" y1="179.76" x2="355.27" y2="179.76" gradientUnits="userSpaceOnUse"><stop offset="0.01" stop-color="#272349"/><stop offset="1" stop-color="#38466d"/></linearGradient></defs><title>Circle Logoldpi</title><g id="Layer_2" data-name="Layer 2"><g id="Layer_1-2" data-name="Layer 1"><path class="cls-1" d="M76.65,430.38h3v6.11a52.15,52.15,0,0,1-6,4A40.86,40.86,0,0,1,66,444a27,27,0,0,1-8.79,1.43,33.19,33.19,0,0,1-16-3.68,26.22,26.22,0,0,1-10.67-10.59q-3.82-6.9-3.83-16.71a33.08,33.08,0,0,1,4-16.58A28,28,0,0,1,41.65,387a32.18,32.18,0,0,1,15.84-3.83,55,55,0,0,1,7.17.52q4,.52,7.67,1.22t6.21,1.27v16.35h-6l-1.72-8.31a2,2,0,0,0-.79-1,10.07,10.07,0,0,0-1.1-.74,28.27,28.27,0,0,0-4.82-2,19.46,19.46,0,0,0-5.55-.72q-8.4,0-13.52,5.58t-5.12,17.08q0,12.09,5.5,18.36t15.35,6.27a18.16,18.16,0,0,0,6.81-1.21,26.44,26.44,0,0,0,5.31-2.77Q75.16,431.55,76.65,430.38Z"/><path class="cls-1" d="M91.93,444.16V440.5l6.67-2.57a2.35,2.35,0,0,0,1-.64A1.82,1.82,0,0,0,100,436V392.57a1.57,1.57,0,0,0-.43-1.23,2.83,2.83,0,0,0-1-.58l-6.67-2.61v-3.62h29.41a42.68,42.68,0,0,1,8.06.83,34.68,34.68,0,0,1,8.42,2.79,25.71,25.71,0,0,1,7.47,5.4,25.11,25.11,0,0,1,5.33,8.62,34.59,34.59,0,0,1,2,12.34q0,10.2-4.22,16.75A25.6,25.6,0,0,1,137,441a39.46,39.46,0,0,1-16.07,3.17Zm20.21-52.88v46.17h9.24q9.5,0,13.81-5.72t4.32-16.06a30.86,30.86,0,0,0-2.52-13,19.19,19.19,0,0,0-7.09-8.39,19.57,19.57,0,0,0-10.85-3Z"/><path class="cls-1" d="M165.19,444.16V440.5l7-2.57a2.36,2.36,0,0,0,1.09-.66,2,2,0,0,0,.36-1.31V392.57a1.61,1.61,0,0,0-.42-1.23,2.8,2.8,0,0,0-1-.58l-7-2.61v-3.62h29.17v3.62l-7,2.61a2.94,2.94,0,0,0-1.08.58,1.54,1.54,0,0,0-.44,1.23V436a1.78,1.78,0,0,0,.44,1.33,2.45,2.45,0,0,0,1.08.64l7,2.57v3.66Z"/><path class="cls-1" d="M202.69,444.16V440.5l4.38-2.12a4.14,4.14,0,0,0,2.05-2.21L226,393.57l4.9-9.92h8.88l20.49,52.72a5.67,5.67,0,0,0,.71,1.28,2.34,2.34,0,0,0,1.1.89l4.54,2v3.66H241.27V440.5l6.87-2.73-13.91-35.28L232.75,397h-.93l-15.51,40.58,7,3v3.66Zm17.8-19.29,2.69-7H241l2.57,7Z"/><path class="cls-1" d="M323.85,430.38h3v6.11a51.08,51.08,0,0,1-5.94,4,40.86,40.86,0,0,1-7.68,3.49,27.06,27.06,0,0,1-8.8,1.43,33.15,33.15,0,0,1-15.95-3.68,26.22,26.22,0,0,1-10.67-10.59q-3.84-6.9-3.84-16.71a33.08,33.08,0,0,1,4-16.58A27.91,27.91,0,0,1,288.85,387a32.17,32.17,0,0,1,15.83-3.83,55,55,0,0,1,7.18.52q3.94.52,7.67,1.22t6.21,1.27v16.35h-6L318,394.26a1.93,1.93,0,0,0-.78-1,9.18,9.18,0,0,0-1.11-.74,27.63,27.63,0,0,0-4.82-2,19.34,19.34,0,0,0-5.54-.72q-8.4,0-13.52,5.58t-5.13,17.08q0,12.09,5.51,18.36T308,437.09a18.16,18.16,0,0,0,6.81-1.21,26.08,26.08,0,0,0,5.3-2.77Q322.37,431.55,323.85,430.38Z"/><path class="cls-2" d="M171.31,263.48A4.73,4.73,0,1,0,176,268.2,4.72,4.72,0,0,0,171.31,263.48Zm40.68,13-3.33,3.33c3-.94,6.08-2,9.23-3.33Zm56.3-64.26-.36-24.1H179.24l-8.32,8.09a5.64,5.64,0,0,1,.15,6.7l25.38,25.38v30.06a5.73,5.73,0,1,1-2,0V229.12l-10.19-10.2H160.06a5.72,5.72,0,1,1,0-2h22.1l-12.53-12.55a5.6,5.6,0,0,1-3.24,1,5.73,5.73,0,1,1,0-11.45,5.59,5.59,0,0,1,3.45,1.19l7.22-7h-104a106.44,106.44,0,0,0,4.7,22.24l3.28-3.27a5.66,5.66,0,0,1-1-3.26,5.71,5.71,0,1,1,2.47,4.7l-4,4A116.49,116.49,0,0,0,91.09,238.9l27.75-27.74a6.65,6.65,0,0,1-1.33-4,6.84,6.84,0,1,1,2.77,5.44l-28,28a100.13,100.13,0,0,0,16.33,18.77L122,246a5.65,5.65,0,0,1-1-3.27,5.76,5.76,0,1,1,2.47,4.72L110.1,260.75a100,100,0,0,0,32.09,18.32l11.89-11.88h10.56a6.78,6.78,0,1,1,0,2h-9.71l-10.58,10.57a129.44,129.44,0,0,0,30.59,6A119.79,119.79,0,0,0,204.55,281l17.5-17.5v-35.1L207.12,213.5a5.63,5.63,0,0,1-3.25,1,5.73,5.73,0,1,1,5.72-5.73,5.66,5.66,0,0,1-1,3.26l14.52,14.51L237.69,212a5.66,5.66,0,0,1-1-3.26,5.73,5.73,0,1,1,2.47,4.7l-15,15v33.06l40.3-40.31a5.75,5.75,0,0,1,3.89-9Zm-92.11,36.73a5.7,5.7,0,0,1-5.62-4.7H159.47l-13.1,13.1a5.71,5.71,0,1,1-4.7-2.47,5.59,5.59,0,0,1,3.25,1l13.7-13.69h11.94a5.72,5.72,0,1,1,5.62,6.73Zm93.29-60.83.35,24.08a5.76,5.76,0,1,1-4,10.44L214,274.44h8.57c26-11.88,54.24-36.28,61-86.33Zm-98.16,75.37A4.73,4.73,0,1,0,176,268.2,4.72,4.72,0,0,0,171.31,263.48Zm0,0A4.73,4.73,0,1,0,176,268.2,4.72,4.72,0,0,0,171.31,263.48Z"/><path class="cls-1" d="M169.9,197.18a4.08,4.08,0,0,1,.73,2.43,4.28,4.28,0,1,1-4.22-4.32,4,4,0,0,1,2.42.81Z"/><polygon class="cls-1" points="194.13 173.64 179.24 188.11 177.06 188.11 191.94 173.64 194.13 173.64"/><path class="cls-1" d="M126.1,167.33a6.39,6.39,0,0,0-3.68,1.11L114.17,160l.54-46a6.46,6.46,0,1,0-2.29,0l-.55,47,8.91,9.12a6.45,6.45,0,1,0,5.32-2.71Zm.09,11a4.48,4.48,0,1,1,4.48-4.47A4.47,4.47,0,0,1,126.19,178.29Z"/><path class="cls-1" d="M102,167.27l.32-26.73a18.36,18.36,0,0,1-2.31,1.61l-.3,25.09a6.46,6.46,0,1,0,2.29,0Z"/><path class="cls-1" d="M260.05,163.93c-.41.32-.84.62-1.26.92l8.93,8.68.21,14.58h1.54l-.22-15.24Z"/><path class="cls-1" d="M273.44,217.8a4.31,4.31,0,1,1-5.14-4.15h1.54A4.28,4.28,0,0,1,273.44,217.8Z"/><path class="cls-1" d="M155.4,139.58c0-4.92,0-9.83,0-14.75,0-5.12,3.18-8.28,8.31-8.29h29.23c5.12,0,8.33,3.19,8.33,8.29q0,14.74,0,29.48c0,4.83-3.13,8.13-7.94,8.16q-15.06.1-30.12,0c-4.66,0-7.78-3.34-7.81-8C155.38,149.49,155.4,144.53,155.4,139.58Zm22.93,16.71h14.36c2.09,0,2.4-.31,2.4-2.37V125.09c0-2-.31-2.36-2.41-2.36H164c-2.09,0-2.39.3-2.39,2.36q0,14.42,0,28.84c0,2.05.29,2.34,2.4,2.34Z"/><path class="cls-3" d="M162.16,106.36c0-1.49,0-3,0-4.48,0-.66.16-.9.85-.86,1,.06,2,0,3.07,0,.56,0,.74.18.73.74,0,3.11,0,6.23,0,9.34,0,.57-.19.75-.74.73-1.07,0-2.14,0-3.2,0-.57,0-.73-.18-.72-.73C162.17,109.52,162.15,107.94,162.16,106.36Z"/><path class="cls-3" d="M171.38,106.43c0-1.54,0-3.08,0-4.61,0-.61.15-.83.78-.8,1.23.07,2.79-.39,3.61.2s.22,2.23.24,3.41c0,2.09,0,4.18,0,6.27,0,.73-.19,1-.93.93-1.18-.07-2.73.39-3.47-.2s-.17-2.24-.24-3.41C171.35,107.62,171.38,107,171.38,106.43Z"/><path class="cls-3" d="M185.24,106.54c0,1.5,0,3,0,4.48,0,.61-.17.88-.79.8h-.13c-1.19,0-2.73.4-3.47-.19s-.22-2.23-.24-3.41c0-2.09,0-4.18,0-6.27,0-.7.17-1,.92-.93,1.18.08,2.72-.39,3.47.2s.18,2.23.25,3.4C185.27,105.26,185.24,105.9,185.24,106.54Z"/><path class="cls-3" d="M189.84,106.33c0-1.37.08-2.74,0-4.1-.08-1.07.33-1.3,1.28-1.21a13.59,13.59,0,0,0,2.3,0c.8-.06,1.11.14,1.09,1-.06,2.94,0,5.89,0,8.83,0,.7-.13,1-.9,1-1.19-.07-2.72.4-3.48-.19s-.17-2.22-.25-3.39C189.81,107.61,189.84,107,189.84,106.33Z"/><path class="cls-3" d="M145.17,128c-1.46,0-2.91-.05-4.35,0-.83,0-1-.26-1-1a18.23,18.23,0,0,0,0-2.56c-.05-.78.12-1.12,1-1.1,2.94.06,5.89,0,8.83,0,.69,0,1,.14.95.91-.12,1.21.51,2.8-.25,3.55-.6.59-2.18.17-3.33.19Z"/><path class="cls-3" d="M211.32,128c-1.49,0-3,0-4.48,0-.67,0-.88-.19-.85-.86,0-1,0-2,0-3.07,0-.56.18-.73.74-.73,3.11,0,6.23,0,9.34,0,.58,0,.74.21.72.75,0,1.06,0,2.13,0,3.2,0,.58-.22.71-.75.7C214.48,128,212.9,128,211.32,128Z"/><path class="cls-3" d="M145.38,132.61c1.49,0,3,0,4.48,0,.61,0,.83.18.8.8-.06,1.23.39,2.78-.2,3.6s-2.23.21-3.4.24c-2.09,0-4.18,0-6.27,0-.71,0-1-.16-.93-.91.13-1.21-.52-2.8.27-3.55.62-.58,2.19-.18,3.33-.2C144.1,132.6,144.74,132.61,145.38,132.61Z"/><path class="cls-3" d="M211.31,132.61c1.54,0,3.08,0,4.62,0,.65,0,.93.15.88.85-.11,1.22.49,2.8-.23,3.58s-2.26.19-3.44.21c-2.1,0-4.19,0-6.28,0-.65,0-.91-.13-.86-.84.08-1.23-.37-2.8.23-3.59s2.24-.16,3.42-.22C210.2,132.59,210.76,132.61,211.31,132.61Z"/><path class="cls-3" d="M145.19,146.48c-1.49,0-3,0-4.47,0-.67,0-.9-.17-.86-.86,0-1,0-2,0-3.06,0-.56.18-.74.74-.73,3.11,0,6.23,0,9.34,0,.57,0,.73.21.72.75,0,1.07,0,2.13,0,3.2,0,.57-.19.72-.73.71C148.35,146.46,146.77,146.48,145.19,146.48Z"/><path class="cls-3" d="M211.31,146.48c-1.45,0-2.91-.06-4.36,0-.83,0-1-.25-1-1a20.27,20.27,0,0,0,0-2.81c0-.7.24-.86.89-.85,3,0,6,0,9,0,.67,0,1,.11,1,.9a22.19,22.19,0,0,0,0,2.94c0,.72-.27.84-.89.82C214.38,146.45,212.84,146.48,211.31,146.48Z"/><path class="cls-3" d="M145.38,151.08c1.49,0,3,0,4.48,0,.61,0,.83.18.8.8,0,1.23.39,2.79-.2,3.6s-2.23.21-3.4.23c-2.09,0-4.18,0-6.27,0-.7,0-1-.15-.93-.91.13-1.21-.52-2.79.27-3.54.62-.59,2.19-.18,3.33-.2C144.1,151.07,144.74,151.08,145.38,151.08Z"/><path class="cls-3" d="M211.41,155.71c-1.53,0-3.07,0-4.61,0-.59,0-.84-.12-.81-.76a26.2,26.2,0,0,0,0-3.07c0-.73.29-.83.91-.82,3,0,6,0,9,0,.71,0,1,.17.94.91-.07,1.19.38,2.73-.2,3.47s-2.23.18-3.41.26C212.61,155.74,212,155.71,211.41,155.71Z"/><path class="cls-3" d="M162.16,172.46c0-1.49,0-3,0-4.48,0-.61.16-.83.79-.79,1.23.06,2.79-.39,3.6.21s.22,2.22.24,3.4c0,2.09,0,4.18,0,6.27,0,.73-.2,1-.93.93-1.19-.08-2.73.38-3.47-.21s-.17-2.23-.24-3.41C162.13,173.74,162.15,173.1,162.16,172.46Z"/><path class="cls-3" d="M176,172.63c0,1.5,0,3,0,4.49,0,.64-.12.93-.84.88-1.22-.08-2.8.37-3.58-.24s-.2-2.23-.22-3.41c0-2,0-4.11,0-6.16,0-.74.11-1.08,1-1,1.18.1,2.74-.36,3.45.24s.17,2.24.23,3.42C176,171.44,176,172,176,172.63Z"/><path class="cls-3" d="M185.24,172.59c0,1.54,0,3.07,0,4.61,0,.62-.18.82-.8.79-1.23-.06-2.79.39-3.59-.21s-.21-2.22-.24-3.4c0-2.09,0-4.18,0-6.27,0-.72.18-1,.92-.93,1.19.08,2.73-.38,3.47.21s.18,2.23.25,3.41C185.27,171.39,185.24,172,185.24,172.59Z"/><path class="cls-3" d="M194.47,172.67c0,1.45-.05,2.91,0,4.35,0,.83-.25,1-1,1a18.44,18.44,0,0,0-2.68,0c-.68,0-1-.1-1-.88.05-3,0-6.06,0-9.09,0-.68.19-.89.86-.85a24,24,0,0,0,2.94,0c.7,0,.87.22.85.88C194.44,169.6,194.47,171.13,194.47,172.67Z"/><path class="cls-3" d="M166.81,139.46c0-3.5,0-7,0-10.5,0-.8.21-1,1-1q10.56,0,21.13,0c.7,0,1,.15,1,.91q0,10.63,0,21.26c0,.73-.22.92-.94.92q-10.56,0-21.13,0c-.9,0-1-.32-1-1.1C166.83,146.46,166.81,143,166.81,139.46Z"/><path class="cls-4" d="M261.36,165.06H258c0-.59-.07-1.14-.07-1.68,0-5.07,0-10.15,0-15.22a3.57,3.57,0,0,0-.7-1.92,3.3,3.3,0,0,1,.22-4.54,3.38,3.38,0,0,1,4.56,0,3.44,3.44,0,0,1,.19,4.55,3.81,3.81,0,0,0-.75,2.06c-.06,5,0,9.94,0,14.9Z"/><path class="cls-5" d="M268.52,152.85c4.52-5.08,4.32-11.56.05-16.29l1.85-1.62c4.51,3.26,6.46,13.43,0,19.69Z"/><path class="cls-6" d="M248.43,134.13l1.72,1.88c-4.83,5.81-3.83,12,0,16.23L248.41,154C244,150.75,241.79,140.74,248.43,134.13Z"/><path class="cls-7" d="M252.43,138.07l1.63,1.83c-2.12,2.77-2.32,5.64.05,8.52l-1.89,1.68C248.82,147.24,248.81,141.14,252.43,138.07Z"/><path class="cls-1" d="M266.36,150.76l-1.43-2.1c1.87-2.49,2.13-5.37-.36-8.32l1.87-1.58C269.65,140.7,270.17,147.72,266.36,150.76Z"/><path class="cls-1" d="M89.44,201.46a4.06,4.06,0,0,1,.73,2.43A4.28,4.28,0,1,1,86,199.57a4,4,0,0,1,2.41.8Z"/><path class="cls-8" d="M328.55,202.82l20.71-6a8,8,0,0,0,5.72-7.18,179.62,179.62,0,0,0-1-31.86,7.94,7.94,0,0,0-6.21-6.79l-21.09-4.58a7.93,7.93,0,0,1-6-5.72q-1.25-4.68-2.78-9.23a7.91,7.91,0,0,1,1.77-8l15.07-15.77a8,8,0,0,0,1.37-9.05,182.71,182.71,0,0,0-16.63-27,8,8,0,0,0-8.85-2.8l-20.39,6.66a7.92,7.92,0,0,1-8.11-2q-3.35-3.37-6.89-6.54a8,8,0,0,1-2.44-7.83l5.27-21.34a8,8,0,0,0-3.32-8.53A175,175,0,0,0,247,14.32a8,8,0,0,0-9,2L223.6,32.46a8,8,0,0,1-8,2.37c-2.94-.79-5.93-1.5-9-2.11h-.05a7.89,7.89,0,0,1-6.11-5.59l-6-21.06A8,8,0,0,0,187.29.29,174.4,174.4,0,0,0,156,1.3a8,8,0,0,0-6.78,6.25L144.64,29A7.94,7.94,0,0,1,139,35q-4.52,1.23-8.93,2.75A7.93,7.93,0,0,1,121.89,36L106.46,20.88a7.94,7.94,0,0,0-9.18-1.4A177.55,177.55,0,0,0,70.66,36.29,7.94,7.94,0,0,0,67.92,45L74.61,66a8,8,0,0,1-1.93,8q-3.34,3.36-6.46,7a8,8,0,0,1-7.94,2.5l-20.8-5.25a8,8,0,0,0-8.62,3.38,178.58,178.58,0,0,0-14.78,28.13,8,8,0,0,0,2,8.93l16.09,14.7a8,8,0,0,1,2.31,7.92c-.8,3-1.52,6.09-2.13,9.21l0,.08a8,8,0,0,1-5.6,6.18l-20.7,6a8,8,0,0,0-5.73,7.18,181.39,181.39,0,0,0,1,31.85,7.94,7.94,0,0,0,6.21,6.8l21.1,4.57a8,8,0,0,1,6,5.72q1.24,4.66,2.77,9.23a7.9,7.9,0,0,1-1.77,8L20.53,251.86a8,8,0,0,0-1.37,9,180.28,180.28,0,0,0,16.64,27,8,8,0,0,0,8.84,2.79L65,284.06a8,8,0,0,1,8.12,2q3.33,3.38,6.87,6.52a8,8,0,0,1,2.45,7.84L77.2,321.74a8,8,0,0,0,3.32,8.53,176.12,176.12,0,0,0,27.69,14.92,8,8,0,0,0,9.06-2l14.39-16.12a7.94,7.94,0,0,1,8-2.37q4.42,1.2,9,2.12h0a8,8,0,0,1,6.12,5.6l6,21a7.94,7.94,0,0,0,7.18,5.78,174.48,174.48,0,0,0,31.32-1,8,8,0,0,0,6.78-6.25l4.55-21.47a8,8,0,0,1,5.68-6c3-.82,6-1.74,8.94-2.74a7.92,7.92,0,0,1,8.13,1.82l15.44,15.07A8,8,0,0,0,258,340a178.87,178.87,0,0,0,26.62-16.81,8,8,0,0,0,2.74-8.74l-6.68-20.93a8,8,0,0,1,1.92-8q3.35-3.37,6.47-7A7.93,7.93,0,0,1,297,276.1l20.79,5.25A8,8,0,0,0,326.4,278a178.58,178.58,0,0,0,14.77-28.13,8,8,0,0,0-2-8.93l-16.08-14.7a8,8,0,0,1-2.3-7.92c.8-3,1.52-6.1,2.13-9.22V209A8,8,0,0,1,328.55,202.82Zm-33,.7c-13,65.9-76.29,108.68-141.39,95.53S46.76,221.85,59.74,156,136,47.32,201.13,60.46,308.5,137.66,295.52,203.52Z"/><text class="cls-9" transform="translate(147.56 304.21) rotate(-163.31)">C</text><text class="cls-9" transform="matrix(-0.91, -0.43, 0.43, -0.91, 128.05, 297.96)">e</text><text class="cls-9" transform="matrix(-0.84, -0.54, 0.54, -0.84, 112.7, 290.51)">n</text><text class="cls-9" transform="translate(97.95 280.48) rotate(-140.38)">t</text><text class="cls-9" transform="translate(88.95 272.81) rotate(-135.03)">r</text><text class="cls-9" transform="matrix(-0.62, -0.78, 0.78, -0.62, 80.48, 264.26)">e</text><text class="cls-9" transform="matrix(-0.54, -0.84, 0.84, -0.54, 70.09, 250.57)"> </text><text class="cls-9" transform="translate(65.12 242.57) rotate(-117.92)">f</text><text class="cls-9" transform="matrix(-0.37, -0.93, 0.93, -0.37, 60.03, 232.94)">o</text><text class="cls-9" transform="translate(53.93 216.42) rotate(-104.75)">r</text><text class="cls-9" transform="translate(51.06 204.65) rotate(-99.91)"> </text><text class="cls-9" transform="matrix(-0.05, -1, 1, -0.05, 49.29, 195.52)">D</text><text class="cls-9" transform="translate(48.51 176.41) rotate(-85.51)">e</text><text class="cls-9" transform="translate(50.1 159.41) rotate(-77.99)">v</text><text class="cls-9" transform="translate(53.67 143.6) rotate(-70.45)">e</text><text class="cls-9" transform="translate(59.77 127.58) rotate(-64.45)">l</text><text class="cls-9" transform="matrix(0.52, -0.85, 0.85, 0.52, 63.81, 119.06)">o</text><text class="cls-9" transform="matrix(0.64, -0.77, 0.77, 0.64, 73.2, 104.24)">p</text><text class="cls-9" transform="translate(84.84 90.12) rotate(-40.39)">m</text><text class="cls-9" transform="translate(105.26 73.64) rotate(-30.67)">e</text><text class="cls-9" transform="translate(120.04 65.12) rotate(-22.8)">n</text><text class="cls-9" transform="matrix(0.96, -0.28, 0.28, 0.96, 136.62, 58.57)">t</text><text class="cls-9" transform="translate(147.98 55.4) rotate(-9.98)">s</text><text class="cls-9" transform="matrix(1, -0.08, 0.08, 1, 163.22, 53.06)"> </text><text class="cls-9" transform="translate(172.63 52.45) rotate(-0.26)">i</text><text class="cls-9" transform="translate(182.04 52.37) rotate(5.86)">n</text><text class="cls-9" transform="matrix(0.98, 0.21, -0.21, 0.98, 199.77, 54.62)"> </text><text class="cls-9" transform="translate(208.89 56.49) rotate(18.41)">A</text><text class="cls-9" transform="matrix(0.89, 0.45, -0.45, 0.89, 226.66, 62.71)">u</text><text class="cls-9" transform="matrix(0.84, 0.55, -0.55, 0.84, 242.41, 71.05)">t</text><text class="cls-9" transform="translate(252.23 77.55) rotate(39.89)">o</text><text class="cls-9" transform="translate(265.66 88.66) rotate(49.63)">m</text><text class="cls-9" transform="translate(282.14 109.03) rotate(59.63)">a</text><text class="cls-9" transform="translate(291.12 125.18) rotate(66.47)">t</text><text class="cls-9" transform="translate(295.67 136.13) rotate(71.31)">i</text><text class="cls-9" transform="translate(298.71 145.05) rotate(77.43)">o</text><text class="cls-9" transform="matrix(0.08, 1, -1, 0.08, 302.3, 162.23)">n</text><text class="cls-9" transform="translate(303.34 180.06) rotate(91.35)"> </text><text class="cls-9" transform="translate(303.18 189.39) rotate(97.62)">a</text><text class="cls-9" transform="matrix(-0.27, 0.96, -0.96, -0.27, 300.48, 207.58)">n</text><text class="cls-9" transform="translate(295.42 224.6) rotate(113.97)">d</text><text class="cls-9" transform="translate(287.5 241.31) rotate(120.23)"> </text><text class="cls-9" transform="matrix(-0.6, 0.8, -0.8, -0.6, 282.92, 249.41)">C</text><text class="cls-9" transform="translate(270.33 265.55) rotate(135.4)">o</text><text class="cls-9" transform="translate(257.7 277.69) rotate(143.31)">n</text><text class="cls-9" transform="translate(243.16 288.04) rotate(149.98)">t</text><text class="cls-9" transform="translate(232.83 293.82) rotate(155.39)">r</text><text class="cls-9" transform="matrix(-0.95, 0.31, -0.31, -0.95, 221.89, 298.78)">o</text><text class="cls-9" transform="matrix(-0.98, 0.2, -0.2, -0.98, 204.98, 303.81)">l</text></g></g></svg>